<?xml version="1.0" encoding="UTF-8"?>
<svg version="1.1" xmlns="http://www.w3.org/2000/svg" width="200" height="146">
<path d="M0 0 C4.74945346 3.78851753 9.18931559 8.66775641 10.015625 14.85546875 C10.11851907 22.05805341 9.33366412 27.54048344 4.20703125 32.87109375 C-2.18130761 38.06633859 -10.36238198 38.68584073 -18.3203125 38.33984375 C-17.94781315 44.54816629 -16.33294587 46.91565824 -12.3203125 51.33984375 C-12.3203125 51.99984375 -12.3203125 52.65984375 -12.3203125 53.33984375 C-11.6603125 53.33984375 -11.0003125 53.33984375 -10.3203125 53.33984375 C-10.3203125 54.32984375 -10.3203125 55.31984375 -10.3203125 56.33984375 C-13.62206878 56.7165147 -14.99977212 56.55929453 -17.78515625 54.65234375 C-26.81712558 46.20538349 -35.47852342 36.76507768 -36.5234375 23.82421875 C-36.67658369 14.89069077 -35.19149821 8.44015769 -28.9609375 1.81640625 C-21.60074824 -4.80776408 -8.3388442 -5.02835884 0 0 Z M-18.3203125 6.33984375 C-18.3203125 6.99984375 -18.3203125 7.65984375 -18.3203125 8.33984375 C-17.1034375 8.73171875 -15.8865625 9.12359375 -14.6328125 9.52734375 C-10.54961643 11.08112632 -8.03777761 12.82312419 -5.3203125 16.33984375 C-4.39065169 18.68103144 -3.85480007 20.86176501 -3.3203125 23.33984375 C-2.6603125 23.33984375 -2.0003125 23.33984375 -1.3203125 23.33984375 C-1.7557129 17.89733871 -2.77677352 14.53613991 -6.3203125 10.33984375 C-10.0565101 7.47335485 -13.5173923 5.7576716 -18.3203125 6.33984375 Z M-20.3203125 12.33984375 C-20.3203125 12.99984375 -20.3203125 13.65984375 -20.3203125 14.33984375 C-19.2065625 14.79359375 -18.0928125 15.24734375 -16.9453125 15.71484375 C-13.3203125 17.33984375 -13.3203125 17.33984375 -11.3203125 19.33984375 C-10.6953125 21.96484375 -10.6953125 21.96484375 -10.3203125 24.33984375 C-9.3303125 24.33984375 -8.3403125 24.33984375 -7.3203125 24.33984375 C-8.15062285 20.10526097 -8.86418838 17.32645993 -12.1328125 14.40234375 C-15.33941414 12.32748387 -16.61728962 11.79528156 -20.3203125 12.33984375 Z M-21.3203125 18.33984375 C-23.51951746 20.16084522 -23.51951746 20.16084522 -23.7578125 22.71484375 C-23.55260009 25.59853123 -23.55260009 25.59853123 -20.8203125 27.65234375 C-19.9953125 28.20921875 -19.1703125 28.76609375 -18.3203125 29.33984375 C-16.17195286 27.09241169 -16.17195286 27.09241169 -14.3203125 24.33984375 C-14.49470757 21.28792997 -15.13289765 20.5272586 -17.3203125 18.33984375 C-18.6403125 18.33984375 -19.9603125 18.33984375 -21.3203125 18.33984375 Z " fill="#58585A" transform="translate(110.3203125,32.66015625)"/>
<path d="M0 0 C2.4375 2.5625 2.4375 2.5625 4 5 C4.78375 4.195625 5.5675 3.39125 6.375 2.5625 C9.21563288 -0.21049876 9.9462687 -0.906335 13.8125 -1.25 C17.44165156 -0.96536066 19.14296165 -0.22214094 22 2 C24.33067577 5.21855225 24.46741137 8.10490526 24 12 C20.87692308 17.70769231 20.87692308 17.70769231 17 19 C11.07427678 19.67083659 11.07427678 19.67083659 8.2109375 17.8828125 C6.74817172 16.65575305 5.36662975 15.33329732 4 14 C3.29875 14.825 2.5975 15.65 1.875 16.5 C-1 19 -1 19 -4.1875 19.375 C-7 19 -7 19 -9 18 C-9 19.98 -9 21.96 -9 24 C-10.98 24 -12.96 24 -15 24 C-15 16.08 -15 8.16 -15 0 C-4.75609756 -1.2804878 -4.75609756 -1.2804878 0 0 Z M-7 4 C-9.31563087 5.88500271 -9.31563087 5.88500271 -9.25 9 C-9.31563087 12.11499729 -9.31563087 12.11499729 -7 14 C-4.21762345 13.59471099 -4.21762345 13.59471099 -2 12 C-1.74994614 9.04182893 -1.74994614 9.04182893 -2 6 C-2.66 5.34 -3.32 4.68 -4 4 C-4.99 4 -5.98 4 -7 4 Z M12 4 C9.63307034 6.84826598 9.63307034 6.84826598 10.375 10.1875 C10.58125 11.115625 10.7875 12.04375 11 13 C12.65 13.33 14.3 13.66 16 14 C17.82660197 9.87851657 17.82660197 9.87851657 17.125 5.625 C16.75375 5.08875 16.3825 4.5525 16 4 C14.68 4 13.36 4 12 4 Z " fill="#58585A" transform="translate(141,93)"/>
<path d="M0 0 C2.27531994 1.47560431 4.02072754 3.11497861 6 5 C6.33 3.68 6.66 2.36 7 1 C9.31 1 11.62 1 14 1 C14.33 5.29 14.66 9.58 15 14 C15.99 14 16.98 14 18 14 C18.33 9.71 18.66 5.42 19 1 C20.98 1 22.96 1 25 1 C25 7.27 25 13.54 25 20 C22.751875 20.04125 20.50375 20.0825 18.1875 20.125 C16.29064453 20.15980469 16.29064453 20.15980469 14.35546875 20.1953125 C11 20 11 20 8 18 C7.3125 15.875 7.3125 15.875 7 14 C6.21625 14.804375 5.4325 15.60875 4.625 16.4375 C1.55894972 19.43054909 0.9109994 19.91405666 -3.3125 20.3125 C-7.57536111 19.95124058 -9.01992054 18.98007946 -12 16 C-13.6020886 12.79582279 -13.49285215 9.47660568 -13 6 C-9.67099375 0.604714 -6.25269403 -0.73561106 0 0 Z M-5 5 C-7.14915785 8.22373677 -7.38286803 9.26703674 -7 13 C-6.34 13.66 -5.68 14.32 -5 15 C-2.39719432 14.67958603 -2.39719432 14.67958603 0 14 C0 11.36 0 8.72 0 6 C-1.65 5.67 -3.3 5.34 -5 5 Z " fill="#58585A" transform="translate(62,92)"/>
<path d="M0 0 C1.98 0 3.96 0 6 0 C6.33 3.3 6.66 6.6 7 10 C7.99 9.01 8.98 8.02 10 7 C13.6875 6.8125 13.6875 6.8125 17 7 C15.61410019 10.09162264 14.50816459 11.49183541 12 14 C13.65 16.64 15.3 19.28 17 22 C17.33 14.74 17.66 7.48 18 0 C19.98 0 21.96 0 24 0 C24 8.58 24 17.16 24 26 C20.04 26 16.08 26 12 26 C8.75 22.5 8.75 22.5 7 19 C6.67 21.31 6.34 23.62 6 26 C4.02 26 2.04 26 0 26 C0 17.42 0 8.84 0 0 Z " fill="#58585A" transform="translate(24,86)"/>
<path d="M0 0 C1.98 0 3.96 0 6 0 C6 8.58 6 17.16 6 26 C-7.37368421 26.49532164 -7.37368421 26.49532164 -10.390625 24.109375 C-13.33249974 20.25351976 -13.63658661 16.74711726 -13 12 C-11.4375 9.0625 -11.4375 9.0625 -9 7 C-2.93023256 5.53488372 -2.93023256 5.53488372 0 7 C0 4.69 0 2.38 0 0 Z M-5 11 C-7.36692966 13.84826598 -7.36692966 13.84826598 -6.625 17.1875 C-6.41875 18.115625 -6.2125 19.04375 -6 20 C-4.35 20.33 -2.7 20.66 -1 21 C0.38125018 18.23749964 0.19079306 16.05268901 0 13 C-0.66 12.34 -1.32 11.68 -2 11 C-2.99 11 -3.98 11 -5 11 Z " fill="#58585A" transform="translate(101,86)"/>
<path d="M0 0 C2.9375 1.8125 2.9375 1.8125 5 4 C5 4.99 5 5.98 5 7 C4.01 7.33 3.02 7.66 2 8 C2.99 8.66 3.98 9.32 5 10 C5.4375 13.4375 5.4375 13.4375 5 17 C3.5 18.9375 3.5 18.9375 1 20 C-2.62494048 20.46054572 -5.90028377 20.28197852 -9.4375 19.375 C-11.81935385 17.27896861 -11.73442208 15.05414612 -12 12 C-11.01 11.67 -10.02 11.34 -9 11 C-9.99 10.34 -10.98 9.68 -12 9 C-11.5152439 2.45579268 -11.5152439 2.45579268 -9.375 0.5625 C-6.06142495 -0.22229409 -3.39800047 -0.35768426 0 0 Z M-6 5 C-5.67 5.66 -5.34 6.32 -5 7 C-3.68 7 -2.36 7 -1 7 C-1 6.34 -1 5.68 -1 5 C-2.65 5 -4.3 5 -6 5 Z M-7 12 C-6.67 12.99 -6.34 13.98 -6 15 C-4.35 15 -2.7 15 -1 15 C-1 14.34 -1 13.68 -1 13 C-3.97 12.505 -3.97 12.505 -7 12 Z " fill="#58585A" transform="translate(120,92)"/>
<path d="M0 0 C1.98 0 3.96 0 6 0 C6 1.98 6 3.96 6 6 C6.99 6 7.98 6 9 6 C9 7.32 9 8.64 9 10 C8.01 10 7.02 10 6 10 C6.11362262 11.4800841 6.24122908 12.95910074 6.375 14.4375 C6.44460937 15.26121094 6.51421875 16.08492187 6.5859375 16.93359375 C6.72257813 17.61550781 6.85921875 18.29742187 7 19 C7.66 19.33 8.32 19.66 9 20 C9 21.65 9 23.3 9 25 C3.375 25.25 3.375 25.25 0 23 C-0.29296875 19.9609375 -0.29296875 19.9609375 -0.1875 16.375 C-0.16042969 15.18648437 -0.13335937 13.99796875 -0.10546875 12.7734375 C-0.07066406 11.85820313 -0.03585938 10.94296875 0 10 C-0.99 10 -1.98 10 -3 10 C-3 8.68 -3 7.36 -3 6 C-2.01 6 -1.02 6 0 6 C0 4.02 0 2.04 0 0 Z " fill="#58585A" transform="translate(167,87)"/>
<path d="M0 0 C1.98 0.495 1.98 0.495 4 1 C3.67 2.32 3.34 3.64 3 5 C1.68 4.67 0.36 4.34 -1 4 C-0.67 2.68 -0.34 1.36 0 0 Z " fill="#58585A" transform="translate(90,53)"/>
</svg>
